# xmcd
#
# Track frame offsets:
#	150
#	34241
#	95860
#	133052
#	171818
#
# Disc length: 2967 seconds
#
# Revision: 0
# Processed by: cddbd v1.5.2PL0 Copyright (c) Steve Scherf et al.
# Submitted via: audiograbber 1.83.01
#
DISCID=430b9505
DTITLE=Driftin - Wild Geese
DYEAR=2008
DGENRE=Blues
TTITLE0=Shuffeling
TTITLE1=Funk and Ballad
TTITLE2=Almost Henry
TTITLE3=Funky Blues
TTITLE4=Wild Geese Flying
EXTD=
EXTT0=
EXTT1=
EXTT2=
EXTT3=
EXTT4=
PLAYORDER=
